HIERARCHY
ROOT hip
{
  OFFSET 5.70873 43.8894 -1.52928
  CHANNELS 6 Xposition Yposition Zposition Zrotation Xrotation Yrotation
  JOINT abdomen
  {
    OFFSET 0 5.99393 0.287273
    CHANNELS 6 Xposition Yposition Zposition Zrotation Xrotation Yrotation
    JOINT chest
    {
      OFFSET 0 6.65865 -0.856112
      CHANNELS 6 Xposition Yposition Zposition Zrotation Xrotation Yrotation
      JOINT neck
      {
        OFFSET 0 8.65624 -1.42685
        CHANNELS 6 Xposition Yposition Zposition Zrotation Xrotation Yrotation
        JOINT head
        {
          OFFSET 0 3.80999 -0.190247
          CHANNELS 6 Xposition Yposition Zposition Zrotation Xrotation Yrotation
          End Site
          {
            OFFSET 0 0 0
          }
        }
      }
      JOINT rCollar
      {
        OFFSET -1.4963 7.5744 -1.52136
        CHANNELS 6 Xposition Yposition Zposition Zrotation Xrotation Yrotation
        JOINT rShldr
        {
          OFFSET -5.47506 -0.905672 0.485692
          CHANNELS 6 Xposition Yposition Zposition Zrotation Xrotation Yrotation
          JOINT rForeArm
          {
            OFFSET -11.3069 -0.201091 0.618544
            CHANNELS 6 Xposition Yposition Zposition Zrotation Xrotation Yrotation
            JOINT rHand
            {
              OFFSET -9.61414 -0.254739 3.48553
              CHANNELS 6 Xposition Yposition Zposition Zrotation Xrotation Yrotation
              JOINT rThumb1
              {
                OFFSET 0.176263 -0.07068 1.26622
                CHANNELS 6 Xposition Yposition Zposition Zrotation Xrotation Yrotation
                JOINT rThumb2
                {
                  OFFSET -1.04683 -0.546484 1.82182
                  CHANNELS 6 Xposition Yposition Zposition Zrotation Xrotation Yrotation
                  JOINT rThumb3
                  {
                    OFFSET -0.993472 -0.621916 0.655506
                    CHANNELS 6 Xposition Yposition Zposition Zrotation Xrotation Yrotation
                    End Site
                    {
                      OFFSET -0.996134 -0.66263 0.644615
                    }
                  }
                }
              }
              JOINT rIndex1
              {
                OFFSET -2.64253 0.566363 2.4162
                CHANNELS 6 Xposition Yposition Zposition Zrotation Xrotation Yrotation
                JOINT rIndex2
                {
                  OFFSET -1.39394 -0.635138 0.899356
                  CHANNELS 6 Xposition Yposition Zposition Zrotation Xrotation Yrotation
                  JOINT rIndex3
                  {
                    OFFSET -0.622395 -0.856016 0.402182
                    CHANNELS 6 Xposition Yposition Zposition Zrotation Xrotation Yrotation
                    End Site
                    {
                      OFFSET -0.472476 -0.801802 0.34216
                    }
                  }
                }
              }
              JOINT rMid1
              {
                OFFSET -3.20814 0.514427 1.52547
                CHANNELS 6 Xposition Yposition Zposition Zrotation Xrotation Yrotation
                JOINT rMid2
                {
                  OFFSET -1.56545 -0.497974 0.68919
                  CHANNELS 6 Xposition Yposition Zposition Zrotation Xrotation Yrotation
                  JOINT rMid3
                  {
                    OFFSET -0.679943 -1.17582 0.444246
                    CHANNELS 6 Xposition Yposition Zposition Zrotation Xrotation Yrotation
                    End Site
                    {
                      OFFSET -0.343874 -0.941341 0.267611
                    }
                  }
                }
              }
              JOINT rRing1
              {
                OFFSET -3.47877 0.200518 0.597719
                CHANNELS 6 Xposition Yposition Zposition Zrotation Xrotation Yrotation
                JOINT rRing2
                {
                  OFFSET -1.28208 -0.53155 0.44672
                  CHANNELS 6 Xposition Yposition Zposition Zrotation Xrotation Yrotation
                  JOINT rRing3
                  {
                    OFFSET -0.710288 -0.970167 0.4032
                    CHANNELS 6 Xposition Yposition Zposition Zrotation Xrotation Yrotation
                    End Site
                    {
                      OFFSET -0.403228 -0.950952 0.378354
                    }
                  }
                }
              }
              JOINT rPinky1
              {
                OFFSET -3.42483 -0.278904 -0.240415
                CHANNELS 6 Xposition Yposition Zposition Zrotation Xrotation Yrotation
                JOINT rPinky2
                {
                  OFFSET -1.05787 -0.635999 0.156459
                  CHANNELS 6 Xposition Yposition Zposition Zrotation Xrotation Yrotation
                  JOINT rPinky3
                  {
                    OFFSET -0.42815 -0.754232 0.287187
                    CHANNELS 6 Xposition Yposition Zposition Zrotation Xrotation Yrotation
                    End Site
                    {
                      OFFSET -0.235717 -0.725605 0.279416
                    }
                  }
                }
              }
            }
          }
        }
      }
      JOINT lCollar
      {
        OFFSET 1.4963 7.5744 -1.52136
        CHANNELS 6 Xposition Yposition Zposition Zrotation Xrotation Yrotation
        JOINT lShldr
        {
          OFFSET 5.47506 -0.905672 0.485692
          CHANNELS 6 Xposition Yposition Zposition Zrotation Xrotation Yrotation
          JOINT lForeArm
          {
            OFFSET 11.3069 -0.201091 0.618544
            CHANNELS 6 Xposition Yposition Zposition Zrotation Xrotation Yrotation
            JOINT lHand
            {
              OFFSET 9.61414 -0.254739 3.48553
              CHANNELS 6 Xposition Yposition Zposition Zrotation Xrotation Yrotation
              JOINT lThumb1
              {
                OFFSET -0.176263 -0.07068 1.26622
                CHANNELS 6 Xposition Yposition Zposition Zrotation Xrotation Yrotation
                JOINT lThumb2
                {
                  OFFSET 1.04683 -0.546484 1.82182
                  CHANNELS 6 Xposition Yposition Zposition Zrotation Xrotation Yrotation
                  JOINT lThumb3
                  {
                    OFFSET 0.993472 -0.621916 0.655506
                    CHANNELS 6 Xposition Yposition Zposition Zrotation Xrotation Yrotation
                    End Site
                    {
                      OFFSET 0.996134 -0.66263 0.644615
                    }
                  }
                }
              }
              JOINT lIndex1
              {
                OFFSET 2.64253 0.566363 2.4162
                CHANNELS 6 Xposition Yposition Zposition Zrotation Xrotation Yrotation
                JOINT lIndex2
                {
                  OFFSET 1.39394 -0.635138 0.899356
                  CHANNELS 6 Xposition Yposition Zposition Zrotation Xrotation Yrotation
                  JOINT lIndex3
                  {
                    OFFSET 0.622395 -0.856016 0.402182
                    CHANNELS 6 Xposition Yposition Zposition Zrotation Xrotation Yrotation
                    End Site
                    {
                      OFFSET 0.472476 -0.801802 0.34216
                    }
                  }
                }
              }
              JOINT lMid1
              {
                OFFSET 3.20814 0.514427 1.52547
                CHANNELS 6 Xposition Yposition Zposition Zrotation Xrotation Yrotation
                JOINT lMid2
                {
                  OFFSET 1.56545 -0.497974 0.68919
                  CHANNELS 6 Xposition Yposition Zposition Zrotation Xrotation Yrotation
                  JOINT lMid3
                  {
                    OFFSET 0.679943 -1.17582 0.444246
                    CHANNELS 6 Xposition Yposition Zposition Zrotation Xrotation Yrotation
                    End Site
                    {
                      OFFSET 0.343874 -0.941341 0.267611
                    }
                  }
                }
              }
              JOINT lRing1
              {
                OFFSET 3.47877 0.200518 0.597719
                CHANNELS 6 Xposition Yposition Zposition Zrotation Xrotation Yrotation
                JOINT lRing2
                {
                  OFFSET 1.28208 -0.53155 0.44672
                  CHANNELS 6 Xposition Yposition Zposition Zrotation Xrotation Yrotation
                  JOINT lRing3
                  {
                    OFFSET 0.710288 -0.970167 0.4032
                    CHANNELS 6 Xposition Yposition Zposition Zrotation Xrotation Yrotation
                    End Site
                    {
                      OFFSET 0.403228 -0.950952 0.378354
                    }
                  }
                }
              }
              JOINT lPinky1
              {
                OFFSET 3.42483 -0.278904 -0.240415
                CHANNELS 6 Xposition Yposition Zposition Zrotation Xrotation Yrotation
                JOINT lPinky2
                {
                  OFFSET 1.05787 -0.635999 0.156459
                  CHANNELS 6 Xposition Yposition Zposition Zrotation Xrotation Yrotation
                  JOINT lPinky3
                  {
                    OFFSET 0.42815 -0.754232 0.287187
                    CHANNELS 6 Xposition Yposition Zposition Zrotation Xrotation Yrotation
                    End Site
                    {
                      OFFSET 0.235717 -0.725605 0.279416
                    }
                  }
                }
              }
            }
          }
        }
      }
    }
  }
  JOINT rThigh
  {
    OFFSET -4.17848 -1.02486 0.046356
    CHANNELS 6 Xposition Yposition Zposition Zrotation Xrotation Yrotation
    JOINT rShin
    {
      OFFSET 1.27155 -17.465 -0.237699
      CHANNELS 6 Xposition Yposition Zposition Zrotation Xrotation Yrotation
      JOINT rFoot
      {
        OFFSET 0.529163 -17.3815 -1.19582
        CHANNELS 6 Xposition Yposition Zposition Zrotation Xrotation Yrotation
        JOINT rToe
        {
          OFFSET -0.711591 -4.4863 4.0596
          CHANNELS 6 Xposition Yposition Zposition Zrotation Xrotation Yrotation
          End Site
          {
            OFFSET -0.869915 -1.10655 1.99006
          }
        }
      }
    }
  }
  JOINT lThigh
  {
    OFFSET 4.17848 -1.02486 0.046356
    CHANNELS 6 Xposition Yposition Zposition Zrotation Xrotation Yrotation
    JOINT lShin
    {
      OFFSET -1.27155 -17.465 -0.237699
      CHANNELS 6 Xposition Yposition Zposition Zrotation Xrotation Yrotation
      JOINT lFoot
      {
        OFFSET -0.529163 -17.3815 -1.19582
        CHANNELS 6 Xposition Yposition Zposition Zrotation Xrotation Yrotation
        JOINT lToe
        {
          OFFSET 0.711591 -4.4863 4.0596
          CHANNELS 6 Xposition Yposition Zposition Zrotation Xrotation Yrotation
          End Site
          {
            OFFSET 0.869915 -1.10655 1.99006
          }
        }
      }
    }
  }
}
MOTION
Frames:	4
Frame Time:	0.0333333
201.417 44.1457 -35.5981 -4.97557 2.78847 -82.219 0 5.99393 0.287273 1.38127 2.02124 -1.70451 0 6.65865 -0.856112 2.82473 3.99987 -3.46046 3.55271e-015 8.65624 -1.42685 -0.104842 0.151338 -2.68065 -7.10543e-015 3.80999 -0.190247 3.90018 1.27882 0.0168439 -1.4963 7.5744 -1.52136 -2.87426 -0.206535 -5.70299 -5.47506 -0.905672 0.485692 79.6826 6.87853 -11.747 -11.3069 -0.201091 0.618544 10.2937 -37.1334 12.9968 -9.61414 -0.254739 3.48553 12.0086 14.3921 -6.69639 0.176263 -0.07068 1.26622 -2.33098 7.13962 -15.3994 -1.04683 -0.546484 1.82182 1.49546 -1.45954 4.3196 -0.993472 -0.621916 0.655506 -0.803319 0.882049 -2.4485 -2.64253 0.566363 2.4162 8.05739 7.34352 -7.20801 -1.39394 -0.635138 0.899356 -1.78124 -0.47495 0.247159 -0.622395 -0.856016 0.402182 4.12299 1.07402 -0.645027 -3.20814 0.514427 1.52547 1.64928 3.60886 -0.63959 -1.56545 -0.497974 0.68919 2.45513 0.745762 -0.365053 -0.679943 -1.17582 0.444246 1.43794 0.438727 -0.210068 -3.47877 0.200518 0.597719 0.281478 -0.403103 -0.181591 -1.28208 -0.53155 0.44672 2.0462 0.700432 -0.386034 -0.710288 -0.970167 0.4032 1.03003 0.354561 -0.19119 -3.42483 -0.278904 -0.240415 0.993778 -1.03119 0.552397 -1.05787 -0.635999 0.156459 -0.312121 -0.117299 0.0524539 -0.42815 -0.754232 0.287187 1.31137 0.488726 -0.22703 1.4963 7.5744 -1.52136 5.58614 0.348077 4.00314 5.47506 -0.905672 0.485692 -86.8064 -0.469854 16.5065 11.3069 -0.201091 0.618544 -12.3514 -38.2291 -11.0245 9.61414 -0.254739 3.48553 -9.17503 0.516367 16.3591 -0.176263 -0.07068 1.26622 4.7017 3.97217 12.7299 1.04683 -0.546484 1.82182 -3.82848 -0.895562 -6.75344 0.993472 -0.621916 0.655506 -0.134293 -0.0393249 -0.239035 2.64253 0.566363 2.4162 -0.828179 5.74249 6.86513 1.39394 -0.635138 0.899356 6.58412 -2.36966 -2.51958 0.622395 -0.856016 0.402182 1.16848 -0.396453 -0.463942 3.20814 0.514427 1.52547 3.76233 1.72453 -0.764385 1.56545 -0.497974 0.68919 2.65069 -1.03644 -1.0469 0.679943 -1.17582 0.444246 3.57609 -1.411 -1.40307 3.47877 0.200518 0.597719 4.45525 -2.4958 -1.90832 1.28208 -0.53155 0.44672 2.90092 -1.25683 -1.29919 0.710288 -0.970167 0.4032 3.81669 -1.66941 -1.69877 3.42483 -0.278904 -0.240415 3.51658 -3.12887 -2.4589 1.05787 -0.635999 0.156459 4.98676 -2.37653 -2.14525 0.42815 -0.754232 0.287187 3.52789 -1.65778 -1.53504 -4.17848 -1.02486 0.046356 -1.25398 6.32982 10.5681 1.27155 -17.465 -0.237699 0.336716 1.22776 -0.566366 0.529163 -17.3815 -1.19582 5.41883 -4.29472 -8.46351 -0.711591 -4.4863 4.0596 0.12726 0.918755 -0.0257703 4.17848 -1.02486 0.046356 4.22133 -2.76797 -6.51347 -1.27155 -17.465 -0.237699 0.200006 15.5534 -0.713692 -0.529163 -17.3815 -1.19582 1.20033 -8.89236 -4.44063 0.711591 -4.4863 4.0596 -0.0001317 0.00100772 -7.36275e-005 
201.306 44.1388 -35.4217 -5.04308 2.68716 -82.0123 0 5.99393 0.287273 1.37161 2.00388 -1.70946 3.55271e-015 6.65865 -0.856112 2.805 3.96532 -3.46969 7.10543e-015 8.65624 -1.42685 -0.107842 0.49388 -2.74298 7.10543e-015 3.80999 -0.190247 3.71695 1.22476 -0.220284 -1.4963 7.5744 -1.52136 -3.15429 -0.236705 -5.5268 -5.47506 -0.905672 0.485692 79.7042 7.70271 -11.7583 -11.3069 -0.201091 0.618544 10.6892 -35.845 14.1715 -9.61414 -0.254739 3.48553 12.0248 14.5995 -7.07377 0.176263 -0.07068 1.26622 -2.28915 7.12877 -15.5334 -1.04683 -0.546484 1.82182 1.49355 -1.45778 4.31423 -0.993472 -0.621916 0.655506 -0.813212 0.893414 -2.47938 -2.64253 0.566363 2.4162 8.12085 7.34382 -7.26847 -1.39394 -0.635138 0.899356 -1.7762 -0.474935 0.249089 -0.622395 -0.856016 0.402182 4.14267 1.07902 -0.64834 -3.20814 0.514427 1.52547 1.75175 3.66676 -0.633051 -1.56545 -0.497974 0.68919 2.47236 0.750938 -0.36778 -0.679943 -1.17582 0.444246 1.49319 0.455654 -0.218344 -3.47877 0.200518 0.597719 0.409422 -0.382418 -0.128785 -1.28208 -0.53155 0.44672 2.0788 0.711548 -0.392384 -0.710288 -0.970167 0.4032 1.09687 0.377599 -0.203771 -3.42483 -0.278904 -0.240415 1.12367 -1.03748 0.64428 -1.05787 -0.635999 0.156459 -0.26368 -0.0990213 0.0443771 -0.42815 -0.754232 0.287187 1.36835 0.509999 -0.237103 1.4963 7.5744 -1.52136 5.30729 0.393517 4.18879 5.47506 -0.905672 0.485692 -86.7858 -0.0379023 16.7267 11.3069 -0.201091 0.618544 -12.3548 -38.7821 -10.8977 9.61414 -0.254739 3.48553 -9.37044 0.238033 16.4807 -0.176263 -0.07068 1.26622 4.69011 3.94915 12.8632 1.04683 -0.546484 1.82182 -3.82554 -0.89507 -6.74832 0.993472 -0.621916 0.655506 -0.117563 -0.0344595 -0.209309 2.64253 0.566363 2.4162 -0.878494 5.74453 6.935 1.39394 -0.635138 0.899356 6.58087 -2.36841 -2.51842 0.622395 -0.856016 0.402182 1.15033 -0.390244 -0.45682 3.20814 0.514427 1.52547 3.66549 1.79136 -0.748756 1.56545 -0.497974 0.68919 2.63324 -1.02947 -1.04015 0.679943 -1.17582 0.444246 3.51774 -1.38722 -1.3811 3.47877 0.200518 0.597719 4.32367 -2.45763 -1.93252 1.28208 -0.53155 0.44672 2.87552 -1.24552 -1.28805 0.710288 -0.970167 0.4032 3.74717 -1.63795 -1.66898 3.42483 -0.278904 -0.240415 3.3705 -3.11638 -2.52592 1.05787 -0.635999 0.156459 4.94705 -2.35281 -2.12671 0.42815 -0.754232 0.287187 3.46858 -1.62913 -1.51028 -4.17848 -1.02486 0.046356 -1.54363 6.69454 11.1441 1.27155 -17.465 -0.237699 0.320213 1.16523 -0.563249 0.529163 -17.3815 -1.19582 5.56031 -4.62201 -9.24033 -0.711591 -4.4863 4.0596 0.126705 0.910885 -0.025581 4.17848 -1.02486 0.046356 3.80501 -2.42624 -6.98177 -1.27155 -17.465 -0.237699 0.202024 15.3843 -0.676877 -0.529163 -17.3815 -1.19582 1.51292 -8.94593 -4.08796 0.711591 -4.4863 4.0596 -8.9613e-005 0.000465645 -4.52785e-005 
201.182 44.1281 -35.2214 -5.18628 2.55318 -81.7491 0 5.99393 0.287273 1.36428 2.0454 -1.73441 3.55271e-015 6.65865 -0.856112 2.79255 4.04794 -3.52031 7.10543e-015 8.65624 -1.42685 -0.111504 0.67849 -2.8298 0 3.80999 -0.190247 3.57725 1.29032 -0.434508 -1.4963 7.5744 -1.52136 -3.46178 -0.270316 -5.2223 -5.47506 -0.905672 0.485692 79.6394 8.45704 -11.8691 -11.3069 -0.201091 0.618544 11.2863 -35.1706 15.7521 -9.61414 -0.254739 3.48553 11.9336 14.9397 -7.17199 0.176263 -0.07068 1.26622 -2.2551 7.12334 -15.647 -1.04683 -0.546484 1.82182 1.49163 -1.45604 4.30883 -0.993472 -0.621916 0.655506 -0.823082 0.904791 -2.51021 -2.64253 0.566363 2.4162 8.16659 7.3453 -7.31792 -1.39394 -0.635138 0.899356 -1.77113 -0.474915 0.25099 -0.622395 -0.856016 0.402182 4.16237 1.084 -0.651639 -3.20814 0.514427 1.52547 1.82657 3.71293 -0.624546 -1.56545 -0.497974 0.68919 2.48962 0.756112 -0.370474 -0.679943 -1.17582 0.444246 1.54844 0.472549 -0.226651 -3.47877 0.200518 0.597719 0.506236 -0.370698 -0.0814947 -1.28208 -0.53155 0.44672 2.11145 0.722649 -0.39875 -0.710288 -0.970167 0.4032 1.16372 0.400624 -0.216375 -3.42483 -0.278904 -0.240415 1.22432 -1.04979 0.724258 -1.05787 -0.635999 0.156459 -0.215231 -0.0807432 0.036275 -0.42815 -0.754232 0.287187 1.42537 0.531245 -0.247191 1.4963 7.5744 -1.52136 4.92621 0.444965 4.34246 5.47506 -0.905672 0.485692 -86.4739 0.489626 16.6286 11.3069 -0.201091 0.618544 -12.3674 -39.444 -10.7612 9.61414 -0.254739 3.48553 -9.55408 -0.485328 16.5683 -0.176263 -0.07068 1.26622 4.68039 3.92933 12.9774 1.04683 -0.546484 1.82182 -3.82261 -0.894569 -6.74318 0.993472 -0.621916 0.655506 -0.100846 -0.0295794 -0.17959 2.64253 0.566363 2.4162 -0.913423 5.74682 6.99091 1.39394 -0.635138 0.899356 6.57762 -2.36719 -2.51723 0.622395 -0.856016 0.402182 1.1322 -0.384033 -0.449693 3.20814 0.514427 1.52547 3.59426 1.84403 -0.740756 1.56545 -0.497974 0.68919 2.61578 -1.02247 -1.0334 0.679943 -1.17582 0.444246 3.48146 -1.37244 -1.36715 3.47877 0.200518 0.597719 4.22234 -2.43209 -1.95793 1.28208 -0.53155 0.44672 2.85009 -1.23419 -1.27692 0.710288 -0.970167 0.4032 3.69619 -1.61494 -1.64654 3.42483 -0.278904 -0.240415 3.25467 -3.11363 -2.58696 1.05787 -0.635999 0.156459 4.90729 -2.3291 -2.10816 0.42815 -0.754232 0.287187 3.43174 -1.61126 -1.49457 -4.17848 -1.02486 0.046356 -1.87992 7.1491 11.6547 1.27155 -17.465 -0.237699 0.309596 1.11997 -0.561534 0.529163 -17.3815 -1.19582 5.72119 -4.97861 -9.89782 -0.711591 -4.4863 4.0596 0.126137 0.903019 -0.0254469 4.17848 -1.02486 0.046356 3.32859 -1.97487 -7.53032 -1.27155 -17.465 -0.237699 0.204032 15.2063 -0.638074 -0.529163 -17.3815 -1.19582 1.86822 -9.01189 -3.71762 0.711591 -4.4863 4.0596 -2.2607e-005 -0.000116727 -1.62891e-005 
201.044 44.1158 -34.9883 -5.43118 2.33643 -81.502 0 5.99393 0.287273 1.33371 2.07928 -1.81639 3.55271e-015 6.65865 -0.856112 2.73543 4.11464 -3.68436 0 8.65624 -1.42685 -0.109797 1.11291 -2.77156 0 3.80999 -0.190247 3.48485 1.38872 -0.584686 -1.4963 7.5744 -1.52136 -3.85014 -0.312124 -4.82621 -5.47506 -0.905672 0.485692 79.4947 9.22686 -11.8583 -11.3069 -0.201091 0.618544 11.6408 -34.4477 16.7516 -9.61414 -0.254739 3.48553 11.9741 14.0955 -6.23454 0.176263 -0.07068 1.26622 -2.22761 7.12169 -15.7425 -1.04683 -0.546484 1.82182 1.48969 -1.45428 4.30343 -0.993472 -0.621916 0.655506 -0.832936 0.916156 -2.54106 -2.64253 0.566363 2.4162 8.19142 7.34778 -7.35334 -1.39394 -0.635138 0.899356 -1.76608 -0.474888 0.252913 -0.622395 -0.856016 0.402182 4.18201 1.08898 -0.654975 -3.20814 0.514427 1.52547 1.87806 3.74864 -0.614649 -1.56545 -0.497974 0.68919 2.50685 0.761282 -0.373188 -0.679943 -1.17582 0.444246 1.57021 0.479157 -0.229784 -3.47877 0.200518 0.597719 0.576566 -0.366465 -0.0396214 -1.28208 -0.53155 0.44672 2.1243 0.726996 -0.401188 -0.710288 -0.970167 0.4032 1.19603 0.411517 -0.222885 -3.42483 -0.278904 -0.240415 1.29984 -1.06677 0.793081 -1.05787 -0.635999 0.156459 -0.196155 -0.0735872 0.0331204 -0.42815 -0.754232 0.287187 1.45293 0.541313 -0.252439 1.4963 7.5744 -1.52136 4.29786 0.47155 4.49779 5.47506 -0.905672 0.485692 -85.801 1.277 16.5616 11.3069 -0.201091 0.618544 -12.4738 -40.1631 -10.798 9.61414 -0.254739 3.48553 -9.45678 -1.16083 16.5538 -0.176263 -0.07068 1.26622 4.675 3.91862 13.0725 1.04683 -0.546484 1.82182 -3.81966 -0.894078 -6.73805 0.993472 -0.621916 0.655506 -0.084133 -0.0247013 -0.149862 2.64253 0.566363 2.4162 -0.930372 5.74944 7.02948 1.39394 -0.635138 0.899356 6.57438 -2.36595 -2.51606 0.622395 -0.856016 0.402182 1.11403 -0.377835 -0.442585 3.20814 0.514427 1.52547 3.5448 1.88463 -0.73898 1.56545 -0.497974 0.68919 2.5983 -1.01549 -1.02665 0.679943 -1.17582 0.444246 3.44518 -1.35768 -1.35317 3.47877 0.200518 0.597719 4.14701 -2.41684 -1.98384 1.28208 -0.53155 0.44672 2.82467 -1.22288 -1.26577 0.710288 -0.970167 0.4032 3.66703 -1.60169 -1.63397 3.42483 -0.278904 -0.240415 3.16514 -3.1184 -2.64206 1.05787 -0.635999 0.156459 4.88772 -2.32194 -2.10144 0.42815 -0.754232 0.287187 3.3949 -1.59338 -1.47885 -4.17848 -1.02486 0.046356 -2.33753 7.73651 12.1183 1.27155 -17.465 -0.237699 0.306964 1.09074 -0.552841 0.529163 -17.3815 -1.19582 5.92056 -5.37551 -10.4672 -0.711591 -4.4863 4.0596 0.125566 0.895155 -0.0252745 4.17848 -1.02486 0.046356 2.75621 -1.28812 -8.03103 -1.27155 -17.465 -0.237699 0.20387 14.8707 -0.587764 -0.529163 -17.3815 -1.19582 2.27893 -9.03084 -3.42264 0.711591 -4.4863 4.0596 2.99987e-005 -0.000661805 2.1311e-006 
